<?xml version="1.0" encoding="utf-8" ?>
<svg baseProfile="full" height="297mm" version="1.1" width="210mm" xmlns="http://www.w3.org/2000/svg" xmlns:ev="http://www.w3.org/2001/xml-events" xmlns:xlink="http://www.w3.org/1999/xlink"><defs /><g transform="translate(0,0)"><image height="55mm" width="100mm" x="0" xlink:href="front.svg" y="0" /></g><g transform="translate(0,57)"><image height="55mm" width="100mm" x="0" xlink:href="front.svg" y="0" /></g><g transform="translate(0,114)"><image height="55mm" width="100mm" x="0" xlink:href="front.svg" y="0" /></g><g transform="translate(0,171)"><image height="55mm" width="100mm" x="0" xlink:href="front.svg" y="0" /></g><g transform="translate(0,228)"><image height="55mm" width="100mm" x="0" xlink:href="front.svg" y="0" /></g><g transform="translate(102,0)"><image height="55mm" width="100mm" x="0" xlink:href="front.svg" y="0" /></g><g transform="translate(102,57)"><image height="55mm" width="100mm" x="0" xlink:href="front.svg" y="0" /></g><g transform="translate(102,114)"><image height="55mm" width="100mm" x="0" xlink:href="front.svg" y="0" /></g><g transform="translate(102,171)"><image height="55mm" width="100mm" x="0" xlink:href="front.svg" y="0" /></g><g transform="translate(102,228)"><image height="55mm" width="100mm" x="0" xlink:href="front.svg" y="0" /></g></svg>