%TF.GenerationSoftware,KiCad,Pcbnew,7.0.10-7.0.10~ubuntu22.04.1*%
%TF.CreationDate,2024-04-30T01:07:58+03:00*%
%TF.ProjectId,auto_cutoff_battery,6175746f-5f63-4757-946f-66665f626174,rev?*%
%TF.SameCoordinates,Original*%
%TF.FileFunction,Copper,L1,Top*%
%TF.FilePolarity,Positive*%
%FSLAX46Y46*%
G04 Gerber Fmt 4.6, Leading zero omitted, Abs format (unit mm)*
G04 Created by KiCad (PCBNEW 7.0.10-7.0.10~ubuntu22.04.1) date 2024-04-30 01:07:58*
%MOMM*%
%LPD*%
G01*
G04 APERTURE LIST*
G04 Aperture macros list*
%AMRoundRect*
0 Rectangle with rounded corners*
0 $1 Rounding radius*
0 $2 $3 $4 $5 $6 $7 $8 $9 X,Y pos of 4 corners*
0 Add a 4 corners polygon primitive as box body*
4,1,4,$2,$3,$4,$5,$6,$7,$8,$9,$2,$3,0*
0 Add four circle primitives for the rounded corners*
1,1,$1+$1,$2,$3*
1,1,$1+$1,$4,$5*
1,1,$1+$1,$6,$7*
1,1,$1+$1,$8,$9*
0 Add four rect primitives between the rounded corners*
20,1,$1+$1,$2,$3,$4,$5,0*
20,1,$1+$1,$4,$5,$6,$7,0*
20,1,$1+$1,$6,$7,$8,$9,0*
20,1,$1+$1,$8,$9,$2,$3,0*%
G04 Aperture macros list end*
%TA.AperFunction,ComponentPad*%
%ADD10R,1.500000X1.500000*%
%TD*%
%TA.AperFunction,ComponentPad*%
%ADD11C,1.500000*%
%TD*%
%TA.AperFunction,ComponentPad*%
%ADD12O,3.200000X3.200000*%
%TD*%
%TA.AperFunction,ComponentPad*%
%ADD13R,3.200000X3.200000*%
%TD*%
%TA.AperFunction,ComponentPad*%
%ADD14O,1.600000X1.600000*%
%TD*%
%TA.AperFunction,ComponentPad*%
%ADD15C,1.600000*%
%TD*%
%TA.AperFunction,ComponentPad*%
%ADD16R,1.700000X1.700000*%
%TD*%
%TA.AperFunction,ComponentPad*%
%ADD17C,9.200000*%
%TD*%
%TA.AperFunction,ComponentPad*%
%ADD18O,2.000000X1.905000*%
%TD*%
%TA.AperFunction,ComponentPad*%
%ADD19R,2.000000X1.905000*%
%TD*%
%TA.AperFunction,ComponentPad*%
%ADD20R,1.600000X1.600000*%
%TD*%
%TA.AperFunction,ComponentPad*%
%ADD21RoundRect,0.250000X-0.550000X-0.550000X0.550000X-0.550000X0.550000X0.550000X-0.550000X0.550000X0*%
%TD*%
%TA.AperFunction,ComponentPad*%
%ADD22RoundRect,0.250000X0.550000X0.550000X-0.550000X0.550000X-0.550000X-0.550000X0.550000X-0.550000X0*%
%TD*%
%TA.AperFunction,SMDPad,CuDef*%
%ADD23R,0.760000X5.000000*%
%TD*%
%TA.AperFunction,SMDPad,CuDef*%
%ADD24R,8.800000X4.500000*%
%TD*%
%TA.AperFunction,Conductor*%
%ADD25C,0.800000*%
%TD*%
%TA.AperFunction,Profile*%
%ADD26C,0.100000*%
%TD*%
G04 APERTURE END LIST*
D10*
X94894400Y-87223600D03*
D11*
X92354400Y-87223600D03*
X89814400Y-87223600D03*
D12*
X125998450Y-70951300D03*
D13*
X110758450Y-70951300D03*
D14*
X103318000Y-63004600D03*
D15*
X103318000Y-70624600D03*
D14*
X82296000Y-78933200D03*
D15*
X89916000Y-78933200D03*
D10*
X84181200Y-90698000D03*
D11*
X84181200Y-88158000D03*
X84181200Y-85618000D03*
D15*
X85547200Y-93878400D03*
D14*
X93167200Y-93878400D03*
D15*
X77802800Y-62459800D03*
D14*
X77802800Y-70079800D03*
D10*
X82047800Y-70139800D03*
D11*
X82047800Y-67599800D03*
X82047800Y-65059800D03*
D15*
X90677800Y-62464800D03*
D14*
X98297800Y-62464800D03*
D16*
X141556250Y-64679300D03*
D15*
X76901200Y-90668000D03*
D14*
X76901200Y-83048000D03*
D17*
X144000000Y-75000000D03*
D15*
X96266000Y-80772000D03*
D14*
X103886000Y-80772000D03*
X126430250Y-59370100D03*
D15*
X126430250Y-66990100D03*
D17*
X144000000Y-94000000D03*
D15*
X85217800Y-69674800D03*
D14*
X92837800Y-69674800D03*
D15*
X117570800Y-80762800D03*
D14*
X117570800Y-88382800D03*
D18*
X129605250Y-65405100D03*
X129605250Y-62865100D03*
D19*
X129605250Y-60325100D03*
D14*
X135395250Y-72005100D03*
D15*
X130315250Y-72005100D03*
D10*
X90592800Y-65964800D03*
D11*
X88052800Y-65964800D03*
X85512800Y-65964800D03*
D15*
X100860200Y-70649800D03*
D14*
X100860200Y-63029800D03*
D15*
X89933700Y-83066000D03*
D14*
X82313700Y-83066000D03*
X78118800Y-76458800D03*
X78118800Y-78998800D03*
X70498800Y-78998800D03*
D20*
X70498800Y-76458800D03*
D11*
X97691600Y-65371400D03*
X97691600Y-67911400D03*
D10*
X97691600Y-70451400D03*
D11*
X97691600Y-72796400D03*
X97691600Y-75336400D03*
D10*
X97691600Y-77876400D03*
D19*
X135435800Y-87527800D03*
D18*
X135435800Y-84987800D03*
X135435800Y-82447800D03*
D10*
X111150800Y-88362800D03*
D11*
X111150800Y-85822800D03*
X111150800Y-83282800D03*
D17*
X56000000Y-94000000D03*
X56000000Y-75000000D03*
D20*
X120220800Y-84032800D03*
D14*
X120220800Y-86572800D03*
X127840800Y-86572800D03*
X127840800Y-84032800D03*
D15*
X102100800Y-90982800D03*
D14*
X102100800Y-85902800D03*
D11*
X102441600Y-72771400D03*
X102441600Y-75311400D03*
D10*
X102441600Y-77851400D03*
D15*
X88022800Y-62449800D03*
D14*
X80402800Y-62449800D03*
X67868800Y-80924400D03*
D15*
X67868800Y-73304400D03*
D10*
X98575800Y-88417800D03*
D11*
X98575800Y-85877800D03*
X98575800Y-83337800D03*
D15*
X73609200Y-91186000D03*
X70009200Y-91186000D03*
D21*
X66409200Y-91186000D03*
D15*
X79926200Y-83058000D03*
D14*
X79926200Y-90678000D03*
X123640250Y-63345100D03*
X123640250Y-65885100D03*
X116020250Y-65885100D03*
D20*
X116020250Y-63345100D03*
D13*
X117811800Y-76790800D03*
D12*
X133051800Y-76790800D03*
D14*
X93980000Y-77825600D03*
D15*
X93980000Y-72745600D03*
X113651000Y-80746200D03*
D14*
X106031000Y-80746200D03*
D15*
X130495800Y-88407800D03*
D14*
X130495800Y-80787800D03*
D15*
X66409200Y-87884000D03*
X70009200Y-87884000D03*
D22*
X73609200Y-87884000D03*
D14*
X105959450Y-65972900D03*
D15*
X113579450Y-65972900D03*
D14*
X80365600Y-73406000D03*
D15*
X72745600Y-73406000D03*
D10*
X106400800Y-88362800D03*
D11*
X106400800Y-85822800D03*
X106400800Y-83282800D03*
D15*
X114636800Y-84156800D03*
D14*
X114636800Y-91776800D03*
D15*
X74802800Y-70084800D03*
D14*
X74802800Y-62464800D03*
D16*
X136730250Y-64730100D03*
D14*
X105959450Y-62972900D03*
D15*
X113579450Y-62972900D03*
D23*
X63169800Y-66818800D03*
X61899800Y-66818800D03*
X60629800Y-66818800D03*
X59359800Y-66818800D03*
X58089800Y-66818800D03*
X56819800Y-66818800D03*
X55549800Y-66818800D03*
X54279800Y-66818800D03*
D24*
X58724800Y-50888800D03*
D25*
X67868800Y-65439002D02*
X72705744Y-60602058D01*
X67868800Y-73304400D02*
X67868800Y-65439002D01*
X73698002Y-59609800D02*
X72002800Y-61305002D01*
X95148400Y-59609800D02*
X73698002Y-59609800D01*
X111168394Y-56066900D02*
X107625494Y-59609800D01*
X107625494Y-59609800D02*
X95148400Y-59609800D01*
X113119000Y-56066900D02*
X111168394Y-56066900D01*
X66409200Y-91186000D02*
X68612200Y-93389000D01*
X135395250Y-72005100D02*
X139580250Y-67820100D01*
X139580250Y-67820100D02*
X139580250Y-63355300D01*
X139580250Y-63355300D02*
X139906250Y-63029300D01*
X94824054Y-97878400D02*
X80151802Y-97878400D01*
X139906250Y-63029300D02*
X143206250Y-63029300D01*
X143206250Y-63029300D02*
X143206250Y-68156996D01*
X143206250Y-68156996D02*
X138435800Y-72927446D01*
X138435800Y-72927446D02*
X138435800Y-89777356D01*
X138435800Y-89777356D02*
X137005356Y-91207800D01*
X113446843Y-95229499D02*
X97472955Y-95229499D01*
X137005356Y-91207800D02*
X117468542Y-91207800D01*
X97472955Y-95229499D02*
X94824054Y-97878400D01*
X117468542Y-91207800D02*
X113446843Y-95229499D01*
X80151802Y-97878400D02*
X75662402Y-93389000D01*
X75662402Y-93389000D02*
X68612200Y-93389000D01*
X97691600Y-67911400D02*
X96124400Y-67911400D01*
X96124400Y-67911400D02*
X90677800Y-62464800D01*
X79399100Y-60863500D02*
X74141358Y-60863500D01*
X74141358Y-60863500D02*
X73202800Y-61802058D01*
X73202800Y-61802058D02*
X73202800Y-72948800D01*
X73202800Y-72948800D02*
X72745600Y-73406000D01*
X93040400Y-71806000D02*
X84328000Y-71806000D01*
X83602800Y-71080800D02*
X84328000Y-71806000D01*
X84328000Y-71806000D02*
X79702858Y-71806000D01*
X82047800Y-67599800D02*
X82797800Y-67599800D01*
X82797800Y-67599800D02*
X83602800Y-68404800D01*
X83602800Y-68404800D02*
X83602800Y-71080800D01*
X90207800Y-66049800D02*
X91468430Y-66049800D01*
X91468430Y-66049800D02*
X94452800Y-69034170D01*
X94452800Y-69034170D02*
X94452800Y-72272800D01*
X94452800Y-72272800D02*
X93980000Y-72745600D01*
X100860200Y-63029800D02*
X98862800Y-63029800D01*
X98862800Y-63029800D02*
X98297800Y-62464800D01*
X93980000Y-72745600D02*
X93040400Y-71806000D01*
X79702858Y-71806000D02*
X76503800Y-75005058D01*
X76503800Y-75005058D02*
X76503800Y-77383800D01*
X97691600Y-75336400D02*
X89226744Y-75336400D01*
X89226744Y-75336400D02*
X88904343Y-75658801D01*
X97691600Y-77876400D02*
X94030800Y-77876400D01*
X94030800Y-77876400D02*
X93980000Y-77825600D01*
X103318000Y-70624600D02*
X103318000Y-68614350D01*
X103318000Y-68614350D02*
X105959450Y-65972900D01*
X102441600Y-77851400D02*
X103858350Y-77851400D01*
X103858350Y-77851400D02*
X110758450Y-70951300D01*
X133059650Y-67157600D02*
X137602750Y-67157600D01*
X137602750Y-67157600D02*
X138380250Y-66380100D01*
X133110450Y-56066900D02*
X113119000Y-56066900D01*
X138380250Y-66380100D02*
X138380250Y-61336700D01*
X138380250Y-61336700D02*
X133110450Y-56066900D01*
X113119000Y-56066900D02*
X113080800Y-56105100D01*
X127693850Y-57305100D02*
X111627250Y-57305100D01*
X111627250Y-57305100D02*
X105959450Y-62972900D01*
X105959450Y-62972900D02*
X103349700Y-62972900D01*
X103349700Y-62972900D02*
X103318000Y-63004600D01*
X103318000Y-63004600D02*
X100885400Y-63004600D01*
X100885400Y-63004600D02*
X100860200Y-63029800D01*
X141556250Y-67157600D02*
X141556250Y-64679300D01*
X137235800Y-81406600D02*
X137235800Y-71861606D01*
X137235800Y-71861606D02*
X141556250Y-67541156D01*
X141556250Y-67541156D02*
X141556250Y-67157600D01*
X135435800Y-79860600D02*
X135451800Y-79844600D01*
X135451800Y-79844600D02*
X135451800Y-72061650D01*
X135451800Y-72061650D02*
X135395250Y-72005100D01*
X133059650Y-67157600D02*
X133059650Y-74712350D01*
X133059650Y-74712350D02*
X133051800Y-74720200D01*
X133051800Y-74720200D02*
X133051800Y-76790800D01*
X137235800Y-81406600D02*
X137210800Y-81381600D01*
X137235800Y-85775300D02*
X137235800Y-81406600D01*
X135435800Y-82447800D02*
X135435800Y-79860600D01*
X135451800Y-82431800D02*
X135435800Y-82447800D01*
X135435800Y-84987800D02*
X136448300Y-84987800D01*
X136448300Y-84987800D02*
X137235800Y-85775300D01*
X93450000Y-80752000D02*
X93431856Y-80752000D01*
X98575800Y-85877800D02*
X93450000Y-80752000D01*
X93431856Y-80752000D02*
X93431856Y-80186314D01*
X93431856Y-80186314D02*
X88904343Y-75658801D01*
X88904343Y-75658801D02*
X78918799Y-75658801D01*
X78918799Y-75658801D02*
X78118800Y-76458800D01*
X96266000Y-80772000D02*
X96266000Y-81028000D01*
X96266000Y-81028000D02*
X98575800Y-83337800D01*
X117811800Y-76790800D02*
X115792500Y-78810100D01*
X115792500Y-78810100D02*
X115271800Y-79330800D01*
X106031000Y-80746200D02*
X107631000Y-79146200D01*
X107631000Y-79146200D02*
X115456400Y-79146200D01*
X115456400Y-79146200D02*
X115792500Y-78810100D01*
X106031000Y-80746200D02*
X103911800Y-80746200D01*
X103911800Y-80746200D02*
X103886000Y-80772000D01*
X113651000Y-80746200D02*
X113651000Y-80782600D01*
X113651000Y-80782600D02*
X111150800Y-83282800D01*
X89916000Y-78933200D02*
X92934800Y-81952000D01*
X92934800Y-81952000D02*
X92934800Y-84103200D01*
X92934800Y-84103200D02*
X91364400Y-85673600D01*
X96510000Y-86135800D02*
X96047800Y-85673600D01*
X96047800Y-85673600D02*
X91364400Y-85673600D01*
X91364400Y-85673600D02*
X89814400Y-87223600D01*
X70498800Y-80848800D02*
X64809200Y-86538400D01*
X64809200Y-86538400D02*
X64809200Y-89586000D01*
X72644000Y-82397600D02*
X69748400Y-85293200D01*
X72644000Y-75590400D02*
X72644000Y-82397600D01*
X72136000Y-75059142D02*
X72136000Y-75082400D01*
X72136000Y-75082400D02*
X72644000Y-75590400D01*
X69000000Y-85293200D02*
X66409200Y-87884000D01*
X69748400Y-85293200D02*
X69000000Y-85293200D01*
X74371200Y-75031600D02*
X74371200Y-79584000D01*
X74371200Y-79584000D02*
X76235200Y-81448000D01*
X86146800Y-95478400D02*
X86775626Y-95478400D01*
X89766368Y-84872000D02*
X90445144Y-84872000D01*
X86775626Y-95478400D02*
X88144200Y-94109826D01*
X88144200Y-94109826D02*
X88144200Y-86494168D01*
X79784400Y-77333200D02*
X78118800Y-78998800D01*
X88144200Y-86494168D02*
X89766368Y-84872000D01*
X90030756Y-81466000D02*
X85897956Y-77333200D01*
X90445144Y-84872000D02*
X91734800Y-83582344D01*
X91734800Y-83582344D02*
X91734800Y-82604358D01*
X91734800Y-82604358D02*
X90596442Y-81466000D01*
X90596442Y-81466000D02*
X90030756Y-81466000D01*
X85897956Y-77333200D02*
X79784400Y-77333200D01*
X77802800Y-62459800D02*
X79399100Y-60863500D01*
X79399100Y-60863500D02*
X79412800Y-60849800D01*
X80365600Y-73406000D02*
X80365600Y-74212000D01*
X80365600Y-74212000D02*
X78118800Y-76458800D01*
X75301200Y-82382000D02*
X75793600Y-81889600D01*
X75793600Y-81889600D02*
X76235200Y-81448000D01*
X72745600Y-73406000D02*
X74371200Y-75031600D01*
X64809200Y-89586000D02*
X66409200Y-91186000D01*
X67868800Y-73304400D02*
X70381258Y-73304400D01*
X70381258Y-73304400D02*
X72136000Y-75059142D01*
X67868800Y-80924400D02*
X67868800Y-79088800D01*
X67868800Y-79088800D02*
X70498800Y-76458800D01*
X94326998Y-96678400D02*
X96975899Y-94029499D01*
X80648858Y-96678400D02*
X94326998Y-96678400D01*
X96975899Y-94029499D02*
X112384101Y-94029499D01*
X112384101Y-94029499D02*
X114636800Y-91776800D01*
X112795800Y-90007800D02*
X110220800Y-92582800D01*
X110220800Y-92582800D02*
X96725542Y-92582800D01*
X96725542Y-92582800D02*
X94450971Y-94857371D01*
X80648858Y-96678400D02*
X75301200Y-91330742D01*
X75301200Y-91330742D02*
X75301200Y-82382000D01*
X76235200Y-81448000D02*
X78316200Y-81448000D01*
X78316200Y-81448000D02*
X79926200Y-83058000D01*
X96510000Y-86135800D02*
X96510000Y-89452000D01*
X96510000Y-89452000D02*
X98040800Y-90982800D01*
X98040800Y-90982800D02*
X102100800Y-90982800D01*
X81518200Y-81466000D02*
X82296000Y-80688200D01*
X82296000Y-80688200D02*
X82296000Y-78933200D01*
X98575800Y-85877800D02*
X98393058Y-85877800D01*
X81518200Y-81466000D02*
X87823200Y-81466000D01*
X87823200Y-81466000D02*
X88333700Y-81466000D01*
X87409600Y-81466000D02*
X87823200Y-81466000D01*
X93829942Y-95478400D02*
X94894400Y-94413942D01*
X84884458Y-95478400D02*
X86146800Y-95478400D01*
X86146800Y-95478400D02*
X93829942Y-95478400D01*
X94894400Y-94413942D02*
X94894400Y-87223600D01*
X92354400Y-87223600D02*
X92354400Y-93065600D01*
X92354400Y-93065600D02*
X93167200Y-93878400D01*
X89814400Y-87223600D02*
X89814400Y-87199800D01*
X84785200Y-92248000D02*
X83947200Y-93086000D01*
X83947200Y-93086000D02*
X83947200Y-94541142D01*
X83947200Y-94541142D02*
X84884458Y-95478400D01*
X85731200Y-92248000D02*
X84785200Y-92248000D01*
X84181200Y-85618000D02*
X85241860Y-85618000D01*
X86944200Y-87320340D02*
X86944200Y-93612770D01*
X85241860Y-85618000D02*
X86944200Y-87320340D01*
X86944200Y-93612770D02*
X86678570Y-93878400D01*
X86678570Y-93878400D02*
X85547200Y-93878400D01*
X85744200Y-92235000D02*
X85731200Y-92248000D01*
X85744200Y-90870742D02*
X85744200Y-92235000D01*
X113579450Y-62972900D02*
X115648050Y-62972900D01*
X115648050Y-62972900D02*
X116020250Y-63345100D01*
X131310250Y-67157600D02*
X133059650Y-67157600D01*
X127693850Y-57305100D02*
X127674850Y-57286100D01*
X130305250Y-57305100D02*
X127693850Y-57305100D01*
X132380250Y-59380100D02*
X132380250Y-61795100D01*
X131310250Y-62865100D02*
X129605250Y-62865100D01*
X132380250Y-61795100D02*
X131310250Y-62865100D01*
X129605250Y-65452600D02*
X131310250Y-67157600D01*
X129605250Y-65405100D02*
X129605250Y-65452600D01*
X130884250Y-62865100D02*
X132749250Y-64730100D01*
X132749250Y-64730100D02*
X136730250Y-64730100D01*
X130315250Y-72005100D02*
X127052250Y-72005100D01*
X127052250Y-72005100D02*
X125998450Y-70951300D01*
X116020250Y-66940100D02*
X112009050Y-70951300D01*
X112009050Y-70951300D02*
X110758450Y-70951300D01*
X123640250Y-65885100D02*
X123640250Y-68593100D01*
X123640250Y-68593100D02*
X125998450Y-70951300D01*
X97691600Y-65371400D02*
X99588800Y-65371400D01*
X100860200Y-66642800D02*
X100860200Y-70649800D01*
X99588800Y-65371400D02*
X100860200Y-66642800D01*
X102441600Y-75311400D02*
X101451600Y-75311400D01*
X100241600Y-74101400D02*
X100241600Y-72431000D01*
X100241600Y-72431000D02*
X100860200Y-71812400D01*
X101451600Y-75311400D02*
X100241600Y-74101400D01*
X100860200Y-71812400D02*
X100860200Y-70649800D01*
X102441600Y-72771400D02*
X102441600Y-71501000D01*
X102441600Y-71501000D02*
X103318000Y-70624600D01*
X129605250Y-62865100D02*
X130884250Y-62865100D01*
X85744200Y-88660340D02*
X85744200Y-90870742D01*
X96197800Y-60809800D02*
X86462800Y-60809800D01*
X86462800Y-60809800D02*
X86422800Y-60849800D01*
X85512800Y-65964800D02*
X87062800Y-64414800D01*
X87062800Y-64414800D02*
X88727800Y-64414800D01*
X88727800Y-64414800D02*
X90677800Y-62464800D01*
X79412800Y-60849800D02*
X86422800Y-60849800D01*
X84181200Y-88158000D02*
X85241860Y-88158000D01*
X85241860Y-88158000D02*
X85744200Y-88660340D01*
X79926200Y-83058000D02*
X81518200Y-81466000D01*
X88333700Y-81466000D02*
X89933700Y-83066000D01*
X82313700Y-83066000D02*
X82313700Y-83750500D01*
X82313700Y-83750500D02*
X84181200Y-85618000D01*
X115271800Y-79330800D02*
X115271800Y-81870800D01*
X115271800Y-81870800D02*
X114636800Y-82505800D01*
X114636800Y-82505800D02*
X114636800Y-84156800D01*
X111150800Y-83282800D02*
X116250800Y-88382800D01*
X116250800Y-88382800D02*
X117570800Y-88382800D01*
X123655800Y-90007800D02*
X112795800Y-90007800D01*
X112795800Y-90007800D02*
X111150800Y-88362800D01*
X130495800Y-80787800D02*
X130495800Y-79346800D01*
X130495800Y-79346800D02*
X133051800Y-76790800D01*
X120220800Y-86572800D02*
X123655800Y-90007800D01*
X123655800Y-90007800D02*
X136508300Y-90007800D01*
X136508300Y-90007800D02*
X137235800Y-89280300D01*
X137235800Y-89280300D02*
X137235800Y-85775300D01*
X86422800Y-60849800D02*
X88022800Y-62449800D01*
X126430250Y-66990100D02*
X126430250Y-64630100D01*
X128195250Y-62865100D02*
X129605250Y-62865100D01*
X126430250Y-64630100D02*
X128195250Y-62865100D01*
X132380250Y-59380100D02*
X130305250Y-57305100D01*
X103911000Y-80746200D02*
X103886000Y-80721200D01*
X96197800Y-60809800D02*
X97797800Y-62409800D01*
X98630800Y-88362800D02*
X98575800Y-88417800D01*
X97716600Y-77851400D02*
X97691600Y-77876400D01*
X78118800Y-78998800D02*
X76503800Y-77383800D01*
X84181200Y-88158000D02*
X82011200Y-88158000D01*
X82047800Y-67599800D02*
X79937800Y-67599800D01*
X79937800Y-67599800D02*
X74802800Y-62464800D01*
X106400800Y-88362800D02*
X98630800Y-88362800D01*
X102441600Y-77851400D02*
X97716600Y-77851400D01*
X116020250Y-66940100D02*
X116020250Y-65885100D01*
X106400800Y-88362800D02*
X111150800Y-88362800D01*
X82011200Y-88158000D02*
X76901200Y-83048000D01*
X132845800Y-82447800D02*
X135435800Y-82447800D01*
X126870800Y-86572800D02*
X125445800Y-85147800D01*
X125445800Y-85147800D02*
X125445800Y-82797800D01*
X127840800Y-86572800D02*
X126870800Y-86572800D01*
X130345800Y-83472800D02*
X131820800Y-83472800D01*
X125445800Y-82797800D02*
X126670800Y-81572800D01*
X128445800Y-81572800D02*
X130345800Y-83472800D01*
X70498800Y-78998800D02*
X70498800Y-80848800D01*
X126670800Y-81572800D02*
X128445800Y-81572800D01*
X131820800Y-83472800D02*
X132845800Y-82447800D01*
X130495800Y-88407800D02*
X130495800Y-86687800D01*
X134555800Y-88407800D02*
X135435800Y-87527800D01*
X130495800Y-88407800D02*
X134555800Y-88407800D01*
X130495800Y-86687800D02*
X127840800Y-84032800D01*
X128650250Y-59370100D02*
X129605250Y-60325100D01*
X126430250Y-59370100D02*
X128650250Y-59370100D01*
X123640250Y-63345100D02*
X123640250Y-62160100D01*
X123640250Y-62160100D02*
X126430250Y-59370100D01*
X123615250Y-63320100D02*
X123640250Y-63345100D01*
X88052800Y-66714800D02*
X91012800Y-69674800D01*
X91012800Y-69674800D02*
X92837800Y-69674800D01*
X88052800Y-65964800D02*
X88052800Y-66714800D01*
X113579450Y-62972900D02*
X113579450Y-65972900D01*
X120220800Y-83412800D02*
X117570800Y-80762800D01*
X120220800Y-84032800D02*
X120220800Y-83412800D01*
X111100800Y-83232800D02*
X111150800Y-83282800D01*
X98630800Y-83282800D02*
X98575800Y-83337800D01*
X106400800Y-83282800D02*
X98630800Y-83282800D01*
X108610800Y-83282800D02*
X111150800Y-85822800D01*
X108610800Y-83282800D02*
X106400800Y-83282800D01*
X106400800Y-85822800D02*
X102180800Y-85822800D01*
X102180800Y-85822800D02*
X102100800Y-85902800D01*
X97691600Y-70451400D02*
X97691600Y-72796400D01*
X80402800Y-62449800D02*
X80402800Y-63414800D01*
X82047800Y-65059800D02*
X85217800Y-68229800D01*
X85217800Y-68229800D02*
X85217800Y-69674800D01*
X80402800Y-63414800D02*
X82047800Y-65059800D01*
X74802800Y-70084800D02*
X77797800Y-70084800D01*
X77797800Y-70084800D02*
X77802800Y-70079800D01*
X81987800Y-70079800D02*
X82047800Y-70139800D01*
X77802800Y-70079800D02*
X81987800Y-70079800D01*
X79946200Y-90698000D02*
X79926200Y-90678000D01*
X76911200Y-90678000D02*
X76901200Y-90668000D01*
X79926200Y-90678000D02*
X76911200Y-90678000D01*
X84181200Y-90698000D02*
X79946200Y-90698000D01*
X78103800Y-76443800D02*
X78118800Y-76458800D01*
D26*
X50000000Y-48000000D02*
X150000000Y-48000000D01*
X150000000Y-100000000D01*
X50000000Y-100000000D01*
X50000000Y-48000000D01*
M02*
