%TF.GenerationSoftware,KiCad,Pcbnew,7.0.10-7.0.10~ubuntu22.04.1*%
%TF.CreationDate,2024-04-30T01:07:58+03:00*%
%TF.ProjectId,auto_cutoff_battery,6175746f-5f63-4757-946f-66665f626174,rev?*%
%TF.SameCoordinates,Original*%
%TF.FileFunction,Copper,L1,Top*%
%TF.FilePolarity,Positive*%
%FSLAX46Y46*%
G04 Gerber Fmt 4.6, Leading zero omitted, Abs format (unit mm)*
G04 Created by KiCad (PCBNEW 7.0.10-7.0.10~ubuntu22.04.1) date 2024-04-30 01:07:58*
%MOMM*%
%LPD*%
G01*
G04 APERTURE LIST*
G04 Aperture macros list*
%AMRoundRect*0 ,Rectangle with rounded corners *0 ,$1 Rounding radius *0 ,$2 $3 $4 $5 $6 $7 $8 $9 X,Y pos of 4 corners *0 ,Add a 4 corners polygon primitive as box body *4,1,4,0.55,0.55,-0.55,0.55,
-0.55,-0.55,
0.55,-0.55,
0.55,0.55,0.0*0 ,Add four circle primitives for the rounded corners *1,1,0.5,0.55,0.55*1,1,0.5,-0.55,0.55*1,1,0.5,-0.55,-0.55*1,1,0.5,0.55,-0.55*0 ,Add four rect primitives between the rounded corners *20,1,0.5,0.55,0.55,-0.55,0.55,0.0*20,1,0.5,-0.55,0.55,-0.55,-0.55,0.0*20,1,0.5,-0.55,-0.55,0.55,-0.55,0.0*20,1,0.5,0.55,-0.55,0.55,0.55,0.0*%
G04 Aperture macros list end*
%TA.AperFunction,ComponentPad*%
%ADD10R,1.5X1.5*%
%TD*%
%TA.AperFunction,ComponentPad*%
%ADD11C,1.5*%
%TD*%
%TA.AperFunction,ComponentPad*%
%ADD12O,3.2X3.2*%
%TD*%
%TA.AperFunction,ComponentPad*%
%ADD13R,3.2X3.2*%
%TD*%
%TA.AperFunction,ComponentPad*%
%ADD14O,1.6X1.6*%
%TD*%
%TA.AperFunction,ComponentPad*%
%ADD15C,1.6*%
%TD*%
%TA.AperFunction,ComponentPad*%
%ADD16R,1.7X1.7*%
%TD*%
%TA.AperFunction,ComponentPad*%
%ADD17C,9.2*%
%TD*%
%TA.AperFunction,ComponentPad*%
%ADD18O,1.905X2*%
%TD*%
%TA.AperFunction,ComponentPad*%
%ADD19R,1.905X2*%
%TD*%
%TA.AperFunction,ComponentPad*%
%ADD20R,1.6X1.6*%
%TD*%
%TA.AperFunction,ComponentPad*%
%ADD21RoundRect,-0.55X0.25*%
%TD*%
%TA.AperFunction,ComponentPad*%
%ADD22RoundRect,0.55X0.25*%
%TD*%
%TA.AperFunction,SMDPad,CuDef*%
%ADD23R,5X0.76*%
%TD*%
%TA.AperFunction,SMDPad,CuDef*%
%ADD24R,4.5X8.8*%
%TD*%
%TA.AperFunction,Conductor*%
%ADD25C,0.8*%
%TD*%
%TA.AperFunction,Profile*%
%ADD26C,0.1*%
%TD*%
G04 APERTURE END LIST*
D10*
X41223600Y57105600D03*
D11*
X41223600Y59645600D03*
X41223600Y62185600D03*
D12*
X24951300Y26001550D03*
D13*
X24951300Y41241550D03*
D14*
X17004600Y48682000D03*
D15*
X24624600Y48682000D03*
D14*
X32933200Y69704000D03*
D15*
X32933200Y62084000D03*
D10*
X44698000Y67818800D03*
D11*
X42158000Y67818800D03*
X39618000Y67818800D03*
D15*
X47878400Y66452800D03*
D14*
X47878400Y58832800D03*
D15*
X16459800Y74197200D03*
D14*
X24079800Y74197200D03*
D10*
X24139800Y69952200D03*
D11*
X21599800Y69952200D03*
X19059800Y69952200D03*
D15*
X16464800Y61322200D03*
D14*
X16464800Y53702200D03*
D16*
X18679300Y10443750D03*
D15*
X44668000Y75098800D03*
D14*
X37048000Y75098800D03*
D17*
X29000000Y8000000D03*
D15*
X34772000Y55734000D03*
D14*
X34772000Y48114000D03*
X13370100Y25569750D03*
D15*
X20990100Y25569750D03*
D17*
X48000000Y8000000D03*
D15*
X23674800Y66782200D03*
D14*
X23674800Y59162200D03*
D15*
X34762800Y34429200D03*
D14*
X42382800Y34429200D03*
D18*
X19405100Y22394750D03*
X16865100Y22394750D03*
D19*
X14325100Y22394750D03*
D14*
X26005100Y16604750D03*
D15*
X26005100Y21684750D03*
D10*
X19964800Y61407200D03*
D11*
X19964800Y63947200D03*
X19964800Y66487200D03*
D15*
X24649800Y51139800D03*
D14*
X17029800Y51139800D03*
D15*
X37066000Y62066300D03*
D14*
X37066000Y69686300D03*
X30458800Y73881200D03*
X32998800Y73881200D03*
X32998800Y81501200D03*
D20*
X30458800Y81501200D03*
D11*
X19371400Y54308400D03*
X21911400Y54308400D03*
D10*
X24451400Y54308400D03*
D11*
X26796400Y54308400D03*
X29336400Y54308400D03*
D10*
X31876400Y54308400D03*
D19*
X41527800Y16564200D03*
D18*
X38987800Y16564200D03*
X36447800Y16564200D03*
D10*
X42362800Y40849200D03*
D11*
X39822800Y40849200D03*
X37282800Y40849200D03*
D17*
X48000000Y96000000D03*
X29000000Y96000000D03*
D20*
X38032800Y31779200D03*
D14*
X40572800Y31779200D03*
X40572800Y24159200D03*
X38032800Y24159200D03*
D15*
X44982800Y49899200D03*
D14*
X39902800Y49899200D03*
D11*
X26771400Y49558400D03*
X29311400Y49558400D03*
D10*
X31851400Y49558400D03*
D15*
X16449800Y63977200D03*
D14*
X16449800Y71597200D03*
X34924400Y84131200D03*
D15*
X27304400Y84131200D03*
D10*
X42417800Y53424200D03*
D11*
X39877800Y53424200D03*
X37337800Y53424200D03*
D15*
X45186000Y78390800D03*
X45186000Y81990800D03*
D21*
X45186000Y85590800D03*
D15*
X37058000Y72073800D03*
D14*
X44678000Y72073800D03*
X17345100Y28359750D03*
X19885100Y28359750D03*
X19885100Y35979750D03*
D20*
X17345100Y35979750D03*
D13*
X30790800Y34188200D03*
D12*
X30790800Y18948200D03*
D14*
X31825600Y58020000D03*
D15*
X26745600Y58020000D03*
X34746200Y38349000D03*
D14*
X34746200Y45969000D03*
D15*
X42407800Y21504200D03*
D14*
X34787800Y21504200D03*
D15*
X41884000Y85590800D03*
X41884000Y81990800D03*
D22*
X41884000Y78390800D03*
D14*
X19972900Y46040550D03*
D15*
X19972900Y38420550D03*
D14*
X27406000Y71634400D03*
D15*
X27406000Y79254400D03*
D10*
X42362800Y45599200D03*
D11*
X39822800Y45599200D03*
X37282800Y45599200D03*
D15*
X38156800Y37363200D03*
D14*
X45776800Y37363200D03*
D15*
X24084800Y77197200D03*
D14*
X16464800Y77197200D03*
D16*
X18730100Y15269750D03*
D14*
X16972900Y46040550D03*
D15*
X16972900Y38420550D03*
D23*
X20818800Y88830200D03*
X20818800Y90100200D03*
X20818800Y91370200D03*
X20818800Y92640200D03*
X20818800Y93910200D03*
X20818800Y95180200D03*
X20818800Y96450200D03*
X20818800Y97720200D03*
D24*
X4888800Y93275200D03*
D25*
X19439000Y84131200D02*
X14602060Y79294260D01*
X27304400Y84131200D02*
X19439000Y84131200D01*
X13609800Y78302000D02*
X15305000Y79997200D01*
X13609800Y56851600D02*
X13609800Y78302000D01*
X10066900Y40831610D02*
X13609800Y44374510D01*
X13609800Y44374510D02*
X13609800Y56851600D01*
X10066900Y38881000D02*
X10066900Y40831610D01*
X45186000Y85590800D02*
X47389000Y83387800D01*
X26005100Y16604750D02*
X21820100Y12419750D01*
X21820100Y12419750D02*
X17355300Y12419750D01*
X17355300Y12419750D02*
X17029300Y12093750D01*
X51878400Y57175950D02*
X51878400Y71848200D01*
X17029300Y12093750D02*
X17029300Y8793750D01*
X17029300Y8793750D02*
X22157000Y8793750D01*
X22157000Y8793750D02*
X26927450Y13564200D01*
X26927450Y13564200D02*
X43777360Y13564200D01*
X43777360Y13564200D02*
X45207800Y14994640D01*
X49229500Y38553160D02*
X49229500Y54527050D01*
X45207800Y14994640D02*
X45207800Y34531460D01*
X49229500Y54527050D02*
X51878400Y57175950D01*
X45207800Y34531460D02*
X49229500Y38553160D01*
X51878400Y71848200D02*
X47389000Y76337600D01*
X47389000Y76337600D02*
X47389000Y83387800D01*
X21911400Y54308400D02*
X21911400Y55875600D01*
X21911400Y55875600D02*
X16464800Y61322200D01*
X14863500Y72600900D02*
X14863500Y77858640D01*
X14863500Y77858640D02*
X15802060Y78797200D01*
X15802060Y78797200D02*
X26948800Y78797200D01*
X26948800Y78797200D02*
X27406000Y79254400D01*
X25806000Y58959600D02*
X25806000Y67672000D01*
X25080800Y68397200D02*
X25806000Y67672000D01*
X25806000Y67672000D02*
X25806000Y72297140D01*
X21599800Y69952200D02*
X21599800Y69202200D01*
X21599800Y69202200D02*
X22404800Y68397200D01*
X22404800Y68397200D02*
X25080800Y68397200D01*
X20049800Y61792200D02*
X20049800Y60531570D01*
X20049800Y60531570D02*
X23034170Y57547200D01*
X23034170Y57547200D02*
X26272800Y57547200D01*
X26272800Y57547200D02*
X26745600Y58020000D01*
X17029800Y51139800D02*
X17029800Y53137200D01*
X17029800Y53137200D02*
X16464800Y53702200D01*
X26745600Y58020000D02*
X25806000Y58959600D01*
X25806000Y72297140D02*
X29005060Y75496200D01*
X29005060Y75496200D02*
X31383800Y75496200D01*
X29336400Y54308400D02*
X29336400Y62773260D01*
X29336400Y62773260D02*
X29658800Y63095660D01*
X31876400Y54308400D02*
X31876400Y57969200D01*
X31876400Y57969200D02*
X31825600Y58020000D01*
X24624600Y48682000D02*
X22614350Y48682000D01*
X22614350Y48682000D02*
X19972900Y46040550D01*
X31851400Y49558400D02*
X31851400Y48141650D01*
X31851400Y48141650D02*
X24951300Y41241550D01*
X21157600Y18940350D02*
X21157600Y14397250D01*
X21157600Y14397250D02*
X20380100Y13619750D01*
X10066900Y18889550D02*
X10066900Y38881000D01*
X20380100Y13619750D02*
X15336700Y13619750D01*
X15336700Y13619750D02*
X10066900Y18889550D01*
X10066900Y38881000D02*
X10105100Y38919200D01*
X11305100Y24306150D02*
X11305100Y40372750D01*
X11305100Y40372750D02*
X16972900Y46040550D01*
X16972900Y46040550D02*
X16972900Y48650300D01*
X16972900Y48650300D02*
X17004600Y48682000D01*
X17004600Y48682000D02*
X17004600Y51114600D01*
X17004600Y51114600D02*
X17029800Y51139800D01*
X21157600Y10443750D02*
X18679300Y10443750D01*
X35406600Y14764200D02*
X25861610Y14764200D01*
X25861610Y14764200D02*
X21541160Y10443750D01*
X21541160Y10443750D02*
X21157600Y10443750D01*
X33860600Y16564200D02*
X33844600Y16548200D01*
X33844600Y16548200D02*
X26061650Y16548200D01*
X26061650Y16548200D02*
X26005100Y16604750D01*
X21157600Y18940350D02*
X28712350Y18940350D01*
X28712350Y18940350D02*
X28720200Y18948200D01*
X28720200Y18948200D02*
X30790800Y18948200D01*
X35406600Y14764200D02*
X35381600Y14789200D01*
X39775300Y14764200D02*
X35406600Y14764200D01*
X36447800Y16564200D02*
X33860600Y16564200D01*
X36431800Y16548200D02*
X36447800Y16564200D01*
X38987800Y16564200D02*
X38987800Y15551700D01*
X38987800Y15551700D02*
X39775300Y14764200D01*
X34752000Y58550000D02*
X34752000Y58568140D01*
X39877800Y53424200D02*
X34752000Y58550000D01*
X34752000Y58568140D02*
X34186310Y58568140D01*
X34186310Y58568140D02*
X29658800Y63095660D01*
X29658800Y63095660D02*
X29658800Y73081200D01*
X29658800Y73081200D02*
X30458800Y73881200D01*
X34772000Y55734000D02*
X35028000Y55734000D01*
X35028000Y55734000D02*
X37337800Y53424200D01*
X30790800Y34188200D02*
X32810100Y36207500D01*
X32810100Y36207500D02*
X33330800Y36728200D01*
X34746200Y45969000D02*
X33146200Y44369000D01*
X33146200Y44369000D02*
X33146200Y36543600D01*
X33146200Y36543600D02*
X32810100Y36207500D01*
X34746200Y45969000D02*
X34746200Y48088200D01*
X34746200Y48088200D02*
X34772000Y48114000D01*
X34746200Y38349000D02*
X34782600Y38349000D01*
X34782600Y38349000D02*
X37282800Y40849200D01*
X32933200Y62084000D02*
X35952000Y59065200D01*
X35952000Y59065200D02*
X38103200Y59065200D01*
X38103200Y59065200D02*
X39673600Y60635600D01*
X40135800Y55490000D02*
X39673600Y55952200D01*
X39673600Y55952200D02*
X39673600Y60635600D01*
X39673600Y60635600D02*
X41223600Y62185600D01*
X34848800Y81501200D02*
X40538400Y87190800D01*
X40538400Y87190800D02*
X43586000Y87190800D01*
X36397600Y79356000D02*
X39293200Y82251600D01*
X29590400Y79356000D02*
X36397600Y79356000D01*
X29059140Y79864000D02*
X29082400Y79864000D01*
X29082400Y79864000D02*
X29590400Y79356000D01*
X39293200Y83000000D02*
X41884000Y85590800D01*
X39293200Y82251600D02*
X39293200Y83000000D01*
X29031600Y77628800D02*
X33584000Y77628800D01*
X33584000Y77628800D02*
X35448000Y75764800D01*
X49478400Y65853200D02*
X49478400Y65224370D01*
X38872000Y62233630D02*
X38872000Y61554860D01*
X49478400Y65224370D02*
X48109830Y63855800D01*
X48109830Y63855800D02*
X40494170Y63855800D01*
X31333200Y72215600D02*
X32998800Y73881200D01*
X40494170Y63855800D02*
X38872000Y62233630D01*
X35466000Y61969240D02*
X31333200Y66102040D01*
X38872000Y61554860D02*
X37582340Y60265200D01*
X37582340Y60265200D02*
X36604360Y60265200D01*
X36604360Y60265200D02*
X35466000Y61403560D01*
X35466000Y61403560D02*
X35466000Y61969240D01*
X31333200Y66102040D02*
X31333200Y72215600D01*
X16459800Y74197200D02*
X14863500Y72600900D01*
X14863500Y72600900D02*
X14849800Y72587200D01*
X27406000Y71634400D02*
X28212000Y71634400D01*
X28212000Y71634400D02*
X30458800Y73881200D01*
X36382000Y76698800D02*
X35889600Y76206400D01*
X35889600Y76206400D02*
X35448000Y75764800D01*
X27406000Y79254400D02*
X29031600Y77628800D01*
X43586000Y87190800D02*
X45186000Y85590800D01*
X27304400Y84131200D02*
X27304400Y81618740D01*
X27304400Y81618740D02*
X29059140Y79864000D01*
X34924400Y84131200D02*
X33088800Y84131200D01*
X33088800Y84131200D02*
X30458800Y81501200D01*
X50678400Y57673000D02*
X48029500Y55024100D01*
X50678400Y71351140D02*
X50678400Y57673000D01*
X48029500Y55024100D02*
X48029500Y39615900D01*
X48029500Y39615900D02*
X45776800Y37363200D01*
X44007800Y39204200D02*
X46582800Y41779200D01*
X46582800Y41779200D02*
X46582800Y55274460D01*
X46582800Y55274460D02*
X48857370Y57549030D01*
X50678400Y71351140D02*
X45330740Y76698800D01*
X45330740Y76698800D02*
X36382000Y76698800D01*
X35448000Y75764800D02*
X35448000Y73683800D01*
X35448000Y73683800D02*
X37058000Y72073800D01*
X40135800Y55490000D02*
X43452000Y55490000D01*
X43452000Y55490000D02*
X44982800Y53959200D01*
X44982800Y53959200D02*
X44982800Y49899200D01*
X35466000Y70481800D02*
X34688200Y69704000D01*
X34688200Y69704000D02*
X32933200Y69704000D01*
X39877800Y53424200D02*
X39877800Y53606940D01*
X35466000Y70481800D02*
X35466000Y64176800D01*
X35466000Y64176800D02*
X35466000Y63666300D01*
X35466000Y64590400D02*
X35466000Y64176800D01*
X49478400Y58170060D02*
X48413940Y57105600D01*
X49478400Y67115540D02*
X49478400Y65853200D01*
X49478400Y65853200D02*
X49478400Y58170060D01*
X48413940Y57105600D02*
X41223600Y57105600D01*
X41223600Y59645600D02*
X47065600Y59645600D01*
X47065600Y59645600D02*
X47878400Y58832800D01*
X41223600Y62185600D02*
X41199800Y62185600D01*
X46248000Y67214800D02*
X47086000Y68052800D01*
X47086000Y68052800D02*
X48541140Y68052800D01*
X48541140Y68052800D02*
X49478400Y67115540D01*
X46248000Y66268800D02*
X46248000Y67214800D01*
X39618000Y67818800D02*
X39618000Y66758140D01*
X41320340Y65055800D02*
X47612770Y65055800D01*
X39618000Y66758140D02*
X41320340Y65055800D01*
X47612770Y65055800D02*
X47878400Y65321430D01*
X47878400Y65321430D02*
X47878400Y66452800D01*
X46235000Y66255800D02*
X46248000Y66268800D01*
X44870740Y66255800D02*
X46235000Y66255800D01*
X16972900Y38420550D02*
X16972900Y36351950D01*
X16972900Y36351950D02*
X17345100Y35979750D01*
X21157600Y20689750D02*
X21157600Y18940350D01*
X11305100Y24306150D02*
X11286100Y24325150D01*
X11305100Y21694750D02*
X11305100Y24306150D01*
X13380100Y19619750D02*
X15795100Y19619750D01*
X16865100Y20689750D02*
X16865100Y22394750D01*
X15795100Y19619750D02*
X16865100Y20689750D01*
X19452600Y22394750D02*
X21157600Y20689750D01*
X19405100Y22394750D02*
X19452600Y22394750D01*
X16865100Y21115750D02*
X18730100Y19250750D01*
X18730100Y19250750D02*
X18730100Y15269750D01*
X26005100Y21684750D02*
X26005100Y24947750D01*
X26005100Y24947750D02*
X24951300Y26001550D01*
X20940100Y35979750D02*
X24951300Y39990950D01*
X24951300Y39990950D02*
X24951300Y41241550D01*
X19885100Y28359750D02*
X22593100Y28359750D01*
X22593100Y28359750D02*
X24951300Y26001550D01*
X19371400Y54308400D02*
X19371400Y52411200D01*
X20642800Y51139800D02*
X24649800Y51139800D01*
X19371400Y52411200D02*
X20642800Y51139800D01*
X29311400Y49558400D02*
X29311400Y50548400D01*
X28101400Y51758400D02*
X26431000Y51758400D01*
X26431000Y51758400D02*
X25812400Y51139800D01*
X29311400Y50548400D02*
X28101400Y51758400D01*
X25812400Y51139800D02*
X24649800Y51139800D01*
X26771400Y49558400D02*
X25501000Y49558400D01*
X25501000Y49558400D02*
X24624600Y48682000D01*
X16865100Y22394750D02*
X16865100Y21115750D01*
X42660340Y66255800D02*
X44870740Y66255800D01*
X14809800Y55802200D02*
X14809800Y65537200D01*
X14809800Y65537200D02*
X14849800Y65577200D01*
X19964800Y66487200D02*
X18414800Y64937200D01*
X18414800Y64937200D02*
X18414800Y63272200D01*
X18414800Y63272200D02*
X16464800Y61322200D01*
X14849800Y72587200D02*
X14849800Y65577200D01*
X42158000Y67818800D02*
X42158000Y66758140D01*
X42158000Y66758140D02*
X42660340Y66255800D01*
X37058000Y72073800D02*
X35466000Y70481800D01*
X35466000Y63666300D02*
X37066000Y62066300D01*
X37066000Y69686300D02*
X37750500Y69686300D01*
X37750500Y69686300D02*
X39618000Y67818800D01*
X33330800Y36728200D02*
X35870800Y36728200D01*
X35870800Y36728200D02*
X36505800Y37363200D01*
X36505800Y37363200D02*
X38156800Y37363200D01*
X37282800Y40849200D02*
X42382800Y35749200D01*
X42382800Y35749200D02*
X42382800Y34429200D01*
X44007800Y28344200D02*
X44007800Y39204200D01*
X44007800Y39204200D02*
X42362800Y40849200D01*
X34787800Y21504200D02*
X33346800Y21504200D01*
X33346800Y21504200D02*
X30790800Y18948200D01*
X40572800Y31779200D02*
X44007800Y28344200D01*
X44007800Y28344200D02*
X44007800Y15491700D01*
X44007800Y15491700D02*
X43280300Y14764200D01*
X43280300Y14764200D02*
X39775300Y14764200D01*
X14849800Y65577200D02*
X16449800Y63977200D01*
X20990100Y25569750D02*
X18630100Y25569750D01*
X16865100Y23804750D02*
X16865100Y22394750D01*
X18630100Y25569750D02*
X16865100Y23804750D01*
X13380100Y19619750D02*
X11305100Y21694750D01*
X34746200Y48089000D02*
X34721200Y48114000D01*
X14809800Y55802200D02*
X16409800Y54202200D01*
X42362800Y53369200D02*
X42417800Y53424200D01*
X31851400Y54283400D02*
X31876400Y54308400D01*
X32998800Y73881200D02*
X31383800Y75496200D01*
X42158000Y67818800D02*
X42158000Y69988800D01*
X21599800Y69952200D02*
X21599800Y72062200D01*
X21599800Y72062200D02*
X16464800Y77197200D01*
X42362800Y45599200D02*
X42362800Y53369200D01*
X31851400Y49558400D02*
X31851400Y54283400D01*
X20940100Y35979750D02*
X19885100Y35979750D01*
X42362800Y45599200D02*
X42362800Y40849200D01*
X42158000Y69988800D02*
X37048000Y75098800D01*
X36447800Y19154200D02*
X36447800Y16564200D01*
X40572800Y25129200D02*
X39147800Y26554200D01*
X39147800Y26554200D02*
X36797800Y26554200D01*
X40572800Y24159200D02*
X40572800Y25129200D01*
X37472800Y21654200D02*
X37472800Y20179200D01*
X36797800Y26554200D02*
X35572800Y25329200D01*
X35572800Y23554200D02*
X37472800Y21654200D01*
X32998800Y81501200D02*
X34848800Y81501200D01*
X35572800Y25329200D02*
X35572800Y23554200D01*
X37472800Y20179200D02*
X36447800Y19154200D01*
X42407800Y21504200D02*
X40687800Y21504200D01*
X42407800Y17444200D02*
X41527800Y16564200D01*
X42407800Y21504200D02*
X42407800Y17444200D01*
X40687800Y21504200D02*
X38032800Y24159200D01*
X13370100Y23349750D02*
X14325100Y22394750D01*
X13370100Y25569750D02*
X13370100Y23349750D01*
X17345100Y28359750D02*
X16160100Y28359750D01*
X16160100Y28359750D02*
X13370100Y25569750D01*
X17320100Y28384750D02*
X17345100Y28359750D01*
X20714800Y63947200D02*
X23674800Y60987200D01*
X23674800Y60987200D02*
X23674800Y59162200D01*
X19964800Y63947200D02*
X20714800Y63947200D01*
X16972900Y38420550D02*
X19972900Y38420550D01*
X37412800Y31779200D02*
X34762800Y34429200D01*
X38032800Y31779200D02*
X37412800Y31779200D01*
X37232800Y40899200D02*
X37282800Y40849200D01*
X37282800Y53369200D02*
X37337800Y53424200D01*
X37282800Y45599200D02*
X37282800Y53369200D01*
X37282800Y43389200D02*
X39822800Y40849200D01*
X37282800Y43389200D02*
X37282800Y45599200D01*
X39822800Y45599200D02*
X39822800Y49819200D01*
X39822800Y49819200D02*
X39902800Y49899200D01*
X24451400Y54308400D02*
X26796400Y54308400D01*
X16449800Y71597200D02*
X17414800Y71597200D01*
X19059800Y69952200D02*
X22229800Y66782200D01*
X22229800Y66782200D02*
X23674800Y66782200D01*
X17414800Y71597200D02*
X19059800Y69952200D01*
X24084800Y77197200D02*
X24084800Y74202200D01*
X24084800Y74202200D02*
X24079800Y74197200D01*
X24079800Y70012200D02*
X24139800Y69952200D01*
X24079800Y74197200D02*
X24079800Y70012200D01*
X44698000Y72053800D02*
X44678000Y72073800D01*
X44678000Y75088800D02*
X44668000Y75098800D01*
X44678000Y72073800D02*
X44678000Y75088800D01*
X44698000Y67818800D02*
X44698000Y72053800D01*
X30443800Y73896200D02*
X30458800Y73881200D01*
D26*
X2000000Y102000000D02*
X2000000Y2000000D01*
X54000000Y2000000D01*
X54000000Y102000000D01*
X2000000Y102000000D01*
M02*
